HIERARCHY
ROOT Hips
{
	OFFSET 0.000000 0.000000 0.000000 
	CHANNELS 6 Xposition Yposition Zposition Zrotation Yrotation Xrotation
	JOINT LeftUpLeg
	{
		OFFSET 1.363060 -1.794630 0.839290 
		CHANNELS 3 Zrotation Yrotation Xrotation
		JOINT LeftLeg
		{
			OFFSET 2.448110 -6.726130 0.000000 
			CHANNELS 3 Zrotation Yrotation Xrotation
			JOINT LeftFoot
			{
				OFFSET 2.562200 -7.039590 0.000000 
				CHANNELS 3 Zrotation Yrotation Xrotation
				JOINT LeftToeBase
				{
					OFFSET 0.157640 -0.433110 2.322550 
					CHANNELS 3 Zrotation Yrotation Xrotation
					End Site
					{
						OFFSET 0.000000 0.000000 0.000000 
					}
				}
			}
		}
	}
	JOINT RightUpLeg
	{
		OFFSET -1.305520 -1.794630 0.839290 
		CHANNELS 3 Zrotation Yrotation Xrotation
		JOINT RightLeg
		{
			OFFSET -2.542530 -6.985550 0.000000 
			CHANNELS 3 Zrotation Yrotation Xrotation
			JOINT RightFoot
			{
				OFFSET -2.568260 -7.056230 0.000000 
				CHANNELS 3 Zrotation Yrotation Xrotation
				JOINT RightToeBase
				{
					OFFSET -0.164730 -0.452590 2.363150 
					CHANNELS 3 Zrotation Yrotation Xrotation
					End Site
					{
						OFFSET 0.000000 0.000000 0.000000 
					}
				}
			}
		}
	}
	JOINT Spine
	{
		OFFSET 0.028270 2.035590 -0.193380 
		CHANNELS 3 Zrotation Yrotation Xrotation
		JOINT Spine1
		{
			OFFSET 0.056720 2.048850 -0.042750 
			CHANNELS 3 Zrotation Yrotation Xrotation
			JOINT Neck1
			{
				OFFSET -0.054170 1.746240 0.172020 
				CHANNELS 3 Zrotation Yrotation Xrotation
				JOINT Head
				{
					OFFSET 0.104070 1.761360 -0.123970 
					CHANNELS 3 Zrotation Yrotation Xrotation
					End Site
					{
						OFFSET 0.000000 0.000000 0.000000 
					}
				}
			}
			JOINT LeftArm
			{
				OFFSET 3.362410 1.200890 -0.311210 
				CHANNELS 3 Zrotation Yrotation Xrotation
				JOINT LeftForeArm
				{
					OFFSET 4.983000 -0.000000 -0.000000 
					CHANNELS 3 Zrotation Yrotation Xrotation
					JOINT LeftHand
					{
						OFFSET 3.483560 -0.000000 -0.000000 
						CHANNELS 3 Zrotation Yrotation Xrotation
						JOINT LeftHandIndex1
						{
							OFFSET 0.715260 -0.000000 -0.000000 
							CHANNELS 3 Zrotation Yrotation Xrotation
							End Site
							{
								OFFSET 0.000000 0.000000 0.000000 
							}
						}
					}
				}
			}
			JOINT RightArm
			{
				OFFSET -3.136600 1.374050 -0.404650 
				CHANNELS 3 Zrotation Yrotation Xrotation
				JOINT RightForeArm
				{
					OFFSET -5.241900 -0.000000 -0.000000 
					CHANNELS 3 Zrotation Yrotation Xrotation
					JOINT RightHand
					{
						OFFSET -3.444170 -0.000000 -0.000000 
						CHANNELS 3 Zrotation Yrotation Xrotation
						JOINT RightHandIndex1
						{
							OFFSET -0.622530 -0.000000 -0.000000 
							CHANNELS 3 Zrotation Yrotation Xrotation
							End Site
							{
								OFFSET 0.000000 0.000000 0.000000 
							}
						}
					}
				}
			}
		}
	}
}
MOTION
Frames: 16
Frame Time: 0.041667
1.355769 17.458545 35.264988 -177.809667 5.161649 -174.136784 -18.520364 -20.891350 -30.186093 0.663048 10.232505 24.218369 1.920955 13.837830 14.257370 0.159300 -2.571700 -7.088600 38.851892 -4.603251 14.127943 -0.928468 -6.668392 24.151980 -1.359282 -13.293034 2.576860 -1.652400 8.101200 -23.021800 -0.510875 8.028991 -3.263005 -0.131783 3.736801 10.531727 6.826758 -10.761323 17.445381 -0.875100 -4.276700 29.010100 -67.496266 35.890774 60.222579 96.950482 -62.030836 -60.005295 1.167558 -0.066333 16.432003 -7.125000 0.000000 0.000000 90.826797 0.927406 52.813505 -113.138643 55.663685 -69.706679 0.295263 -1.570753 7.433905 7.125000 0.000000 0.000000 
1.336746 17.446814 34.963377 -177.624139 5.393628 -174.199818 -18.388522 -20.765509 -30.144035 0.591872 10.008023 23.596847 1.913402 13.985712 14.136237 0.221400 -3.029100 -8.359800 38.615775 -5.149883 14.871535 -0.963076 -6.699062 24.429727 -1.397392 -13.595766 3.738252 -1.487600 7.705500 -21.823000 -0.505214 8.001178 -3.245047 -0.198075 3.715741 10.893212 6.847827 -10.615344 17.548244 -0.823300 -4.243600 29.655600 -67.420450 36.287767 59.919586 97.401194 -62.015403 -60.401211 1.181359 -0.079174 16.548231 -7.125000 0.000000 0.000000 90.507545 1.262253 53.308904 -113.202924 55.651111 -69.752977 0.298492 -1.543071 7.444747 7.125000 0.000000 0.000000 
1.317195 17.413842 34.669587 -177.402879 5.580141 -174.467534 -18.359734 -20.517350 -30.082936 0.604436 10.024280 23.716726 1.955504 14.333392 14.504923 0.240800 -3.157700 -8.718000 38.423861 -5.440774 15.052360 -1.220325 -7.194324 26.083935 -1.398470 -13.897387 3.761077 -1.283000 7.177800 -20.243200 -0.553615 8.164126 -3.328685 -0.529525 3.855687 10.541988 6.848413 -10.919208 17.693454 -0.846400 -4.380900 29.484200 -66.325824 36.961024 60.652939 97.859108 -61.965012 -60.824193 1.196557 -0.089938 16.553042 -7.125000 0.000000 0.000000 90.677854 0.375639 53.381115 -113.767916 55.485646 -70.314174 0.298451 -1.528721 7.573342 7.125000 0.000000 0.000000 
1.292889 17.345044 34.382243 -177.248932 5.878974 -174.830585 -18.980934 -19.348302 -29.484130 0.649554 10.009656 23.943781 2.185180 14.270076 16.456952 0.213800 -2.976700 -8.214000 38.122261 -5.754933 15.230202 -1.512645 -7.678627 27.755529 -1.416852 -13.701963 4.834198 -1.207500 6.971400 -19.630600 -0.520212 8.146105 -3.281563 -0.492587 3.835130 10.785091 6.913727 -10.701992 17.762791 -0.721200 -4.352000 29.515600 -66.454710 37.249954 60.371570 98.166017 -61.973470 -61.080860 1.210230 -0.093882 16.568599 -7.125000 0.000000 0.000000 90.465243 0.303611 53.497012 -113.586709 55.559790 -70.097062 0.302495 -1.510351 7.599027 7.125000 0.000000 0.000000 
1.269745 17.280157 34.094477 -177.116520 6.106246 -175.171571 -19.453312 -18.304492 -29.223230 0.748023 10.156609 24.517748 2.223263 13.843500 16.972463 0.183800 -2.761100 -7.614400 37.831222 -5.922722 15.161603 -1.894158 -8.306281 29.903882 -1.427565 -13.759848 5.350580 -1.108600 6.689500 -18.798600 -0.481448 8.152819 -3.269725 -0.373696 3.826554 10.855125 6.923437 -10.601871 17.856395 -0.658900 -4.380800 29.564200 -66.399503 37.655224 60.378019 98.509795 -61.970499 -61.366555 1.223740 -0.095544 16.608145 -7.125000 0.000000 0.000000 90.217136 -0.012024 53.564303 -113.559554 55.579826 -70.072116 0.301516 -1.490868 7.607317 7.125000 0.000000 0.000000 
1.245650 17.201320 33.811677 -177.028756 6.309564 -175.583664 -20.085080 -17.004921 -28.903935 0.914049 10.426658 25.447791 2.150267 13.002412 16.804868 0.146400 -2.466200 -6.795800 37.491443 -6.009060 14.908999 -2.370661 -9.037238 32.450042 -1.435101 -13.826236 5.773195 -1.038000 6.479800 -18.183000 -0.436493 8.126506 -3.253870 -0.232960 3.800165 10.894653 6.927102 -10.474567 17.937147 -0.598800 -4.403300 29.569200 -66.466044 38.024621 60.321100 98.793633 -61.972349 -61.598204 1.236601 -0.093637 16.644645 -7.125000 0.000000 0.000000 89.985434 -0.399560 53.543905 -113.436636 55.628335 -69.946850 0.303072 -1.476504 7.608109 7.125000 0.000000 0.000000 
1.220921 17.110646 33.534056 -177.000506 6.475592 -176.057012 -20.830696 -15.579822 -28.485346 1.134458 10.783617 26.635195 1.943101 12.020840 15.693718 0.113700 -2.173900 -5.986400 37.084975 -6.066133 14.590255 -2.899892 -9.782082 35.141505 -1.446730 -13.962467 6.217790 -0.982700 6.310100 -17.686900 -0.391972 8.061719 -3.237665 -0.094605 3.755328 10.892853 6.940909 -10.343072 18.008920 -0.526900 -4.427500 29.578500 -66.637105 38.356463 60.194256 99.022988 -61.975095 -61.783551 1.249368 -0.088447 16.688047 -7.125000 0.000000 0.000000 89.794133 -0.853565 53.436654 -113.213090 55.705643 -69.711321 0.306282 -1.469700 7.600695 7.125000 0.000000 0.000000 
1.195980 17.012047 33.261718 -177.025625 6.597020 -176.583574 -21.591733 -14.241961 -28.007368 1.406968 11.237531 28.116587 1.638662 11.275926 13.663116 0.087500 -1.908400 -5.252700 36.635298 -6.061396 14.160700 -3.495935 -10.557206 38.047624 -1.460212 -14.217319 6.594575 -0.929600 6.142000 -17.196900 -0.359775 7.948924 -3.222604 -0.050097 3.698119 10.848174 6.962184 -10.219674 18.068295 -0.459500 -4.443000 29.599900 -66.897267 38.620021 59.950328 99.154275 -61.978991 -61.891954 1.262347 -0.079610 16.730171 -7.125000 0.000000 0.000000 89.712829 -1.353357 53.262022 -112.899091 55.808732 -69.361944 0.314441 -1.472690 7.610160 7.125000 0.000000 0.000000 
1.171251 16.909749 32.994876 -177.124121 6.663581 -177.145766 -22.345029 -13.149991 -27.472191 1.716709 11.758797 29.817177 1.314138 11.042106 11.047179 0.076200 -1.780300 -4.898900 36.144113 -6.000055 13.639828 -4.146806 -11.336173 41.099178 -1.475834 -14.635321 6.908985 -0.875400 5.965200 -16.683500 -0.325265 7.800011 -3.205350 0.022474 3.620182 10.772126 6.992849 -10.094120 18.110492 -0.384400 -4.456900 29.588300 -67.323313 38.784169 59.605820 99.139075 -61.994874 -61.870789 1.276078 -0.066412 16.798684 -7.125000 0.000000 0.000000 89.672495 -1.926512 52.972896 -112.484952 55.941814 -68.908758 0.326596 -1.482319 7.653419 7.125000 0.000000 0.000000 
1.146522 16.807767 32.733424 -177.318117 6.686671 -177.736214 -23.128405 -12.387667 -26.859644 2.048494 12.311094 31.637025 1.030434 11.423412 8.301661 0.069400 -1.699200 -4.675000 35.579246 -5.872593 13.033279 -4.849501 -12.103119 44.261922 -1.486900 -15.221777 7.104733 -0.816200 5.765000 -16.104200 -0.322239 7.603939 -3.187949 -0.088406 3.538564 10.669468 7.052425 -9.987656 18.141749 -0.305900 -4.450700 29.553300 -67.816003 38.823983 59.099881 98.958692 -62.016578 -61.720927 1.289502 -0.048265 16.863344 -7.125000 0.000000 0.000000 89.854819 -2.515441 52.606460 -111.926159 56.121739 -68.257662 0.343751 -1.504959 7.790914 7.125000 0.000000 0.000000 
1.122004 16.709591 32.478313 -177.620703 6.661261 -178.348005 -23.973499 -11.957501 -26.161550 2.384238 12.854320 33.451206 0.802706 12.333490 5.780791 0.060200 -1.583100 -4.354700 34.931686 -5.682598 12.323961 -5.605301 -12.852774 47.525716 -1.483043 -15.971848 7.102847 -0.757200 5.557400 -15.505400 -0.341929 7.374386 -3.166596 -0.311321 3.451973 10.557198 7.113319 -9.901294 18.153641 -0.259500 -4.418100 29.448100 -68.417685 38.688226 58.457097 98.543920 -62.053948 -61.375217 1.303272 -0.024222 16.932436 -7.125000 0.000000 0.000000 90.235461 -3.122210 52.109292 -111.185489 56.363412 -67.377541 0.367182 -1.535601 8.037695 7.125000 0.000000 0.000000 
1.097909 16.616275 32.230599 -178.077243 6.611914 -178.983646 -24.970230 -11.748535 -25.349454 2.704140 13.348701 35.133841 0.616410 13.542086 3.648806 0.044700 -1.364100 -3.751200 34.151233 -5.406361 11.497421 -6.424911 -13.581473 50.899501 -1.451833 -16.827272 6.827549 -0.706100 5.370900 -14.969400 -0.389291 7.117691 -3.138135 -0.634643 3.361233 10.448317 7.186196 -9.823364 18.152562 -0.223400 -4.365100 29.303600 -69.153053 38.332595 57.654596 97.828243 -62.112078 -60.778377 1.314373 0.008371 17.000509 -7.125000 0.000000 0.000000 90.812481 -3.724204 51.476745 -110.237016 56.677251 -66.240427 0.400235 -1.575022 8.373425 7.125000 0.000000 0.000000 
1.075294 16.528772 31.991551 -178.737828 6.563018 -179.639105 -26.181576 -11.651382 -24.405274 2.987193 13.764825 36.580353 0.445422 14.885275 1.772660 0.025200 -1.024100 -2.815200 33.183307 -5.024909 10.531929 -7.318732 -14.282825 54.383541 -1.386863 -17.675101 6.260649 -0.663300 5.208900 -14.505200 -0.457379 6.857792 -3.095371 -0.948810 3.265227 10.375927 7.270171 -9.746743 18.132402 -0.181900 -4.303200 29.141300 -70.066561 37.689122 56.705927 96.741762 -62.197167 -59.865757 1.322036 0.048291 17.118324 -7.125000 0.000000 0.000000 91.515732 -4.276259 50.660949 -109.004456 57.088240 -64.782939 0.439560 -1.620289 8.745031 7.125000 0.000000 0.000000 
1.055215 16.447610 31.762965 -179.610021 6.550084 179.698004 -27.614289 -11.538363 -23.341479 3.221263 14.087873 37.739024 0.284020 16.169253 0.104230 0.010400 -0.657100 -1.805600 32.020936 -4.500768 9.408609 -8.286413 -14.948455 57.954057 -1.291689 -18.407949 5.430769 -0.636600 5.104900 -14.208100 -0.550440 6.620515 -3.038179 -1.271795 3.180431 10.353634 7.335029 -9.645871 18.073135 -0.182200 -4.201300 28.929800 -71.119527 36.711511 55.629123 95.289988 -62.299303 -58.648004 1.321640 0.093516 17.290362 -7.125000 0.000000 0.000000 92.327373 -4.772478 49.646696 -107.490897 57.595932 -63.025097 0.486230 -1.672805 9.155412 7.125000 0.000000 0.000000 
1.037883 16.372472 31.545687 179.372344 6.596263 179.054010 -29.176714 -11.298318 -22.207820 3.404597 14.319426 38.614364 0.134001 17.294012 -1.406685 0.002900 -0.348500 -0.957500 30.753308 -3.806252 8.118734 -9.309172 -15.569774 61.550097 -1.180583 -18.963481 4.444027 -0.616400 5.024800 -13.979400 -0.653557 6.440529 -2.974499 -1.517408 3.116295 10.348743 7.389495 -9.546335 17.999236 -0.191100 -4.100400 28.683800 -72.241784 35.453501 54.564813 93.575691 -62.404309 -57.213290 1.312412 0.140649 17.580053 -7.125000 0.000000 0.000000 93.160860 -5.274586 48.387614 -105.669498 58.204468 -60.980457 0.539427 -1.737243 9.542626 7.125000 0.000000 0.000000 
1.022454 16.304731 31.339188 178.365853 6.715772 178.471625 -30.678652 -10.893317 -21.096664 3.549178 14.479867 39.271586 0.000062 18.217913 -2.781370 0.000300 -0.104800 -0.287800 29.571079 -2.921576 6.665998 -10.351078 -16.144700 65.078457 -1.069119 -19.324374 3.412557 -0.600700 4.961400 -13.798500 -0.757176 6.317651 -2.904565 -1.742424 3.079784 10.395665 7.411541 -9.426098 17.902870 -0.231100 -3.984000 28.425000 -73.406817 33.925014 53.511413 91.706057 -62.496773 -55.658547 1.296642 0.182638 18.007557 -7.125000 0.000000 0.000000 93.987168 -5.737830 46.873888 -103.511410 58.920764 -58.645528 0.591402 -1.810526 9.943835 7.125000 0.000000 0.000000 
